<svg xmlns="http://www.w3.org/2000/svg" width="56" height="42"><path fill="#202033" d="M24.6 22.508c0 6.63-5.369 12-12 12s-12-5.37-12-12c0-6.631 5.369-12 12-12s12 5.369 12 12Z"/><path fill="#fff" d="M22.938 22.923h-1.876a1.46 1.46 0 0 1-1.416 1.046 1.478 1.478 0 0 1 0-2.954c.662 0 1.231.447 1.416 1.047h1.876a3.31 3.31 0 0 0-3.292-2.893 3.319 3.319 0 0 0-3.323 3.323 3.322 3.322 0 0 0 6.615.43ZM5.538 19.185a3.33 3.33 0 0 0-3.323 3.323 3.33 3.33 0 0 0 3.323 3.323c.97 0 1.477-.631 1.477-.631v.57h1.847v-3.262a3.33 3.33 0 0 0-3.324-3.323Zm0 4.8a1.477 1.477 0 1 1 .001-2.954 1.477 1.477 0 0 1-.001 2.954ZM12.6 19.185c-.892 0-1.477.492-1.477.492v-2.108H9.277v4.939A3.32 3.32 0 0 0 12.6 25.83a3.31 3.31 0 0 0 3.323-3.323 3.319 3.319 0 0 0-3.323-3.323Zm0 4.8a1.478 1.478 0 1 1 .001-2.956 1.478 1.478 0 0 1-.001 2.956Z"/><path fill="#fff" d="M35.385 1.015c-7.631 0-14.262 4.308-17.616 10.631a12.01 12.01 0 0 1 4.893 4.292h16.661c-1.785 1.339-8.738 7.4-7.461 19.985a15.142 15.142 0 0 1-9.262-6.815 11.967 11.967 0 0 1-3.538 3.492c3.615 5.138 9.569 8.508 16.307 8.508 11.016 0 19.954-8.97 19.954-20.046 0-11.077-8.938-20.047-19.954-20.047m-11.092 9.908a15.095 15.095 0 0 1 11.246-5.015c4.462 0 8.477 1.938 11.246 5.015H24.262Zm12.785 25.37-.185-.4s-2.815-15.247 12.908-19.94a15.28 15.28 0 0 1 .907 5.2c0 7.893-5.984 14.386-13.63 15.155"/><path fill="#0058f6" d="M22.615 29.108a15.145 15.145 0 0 0 9.262 6.815c-1.292-12.57 5.677-18.646 7.462-19.985H22.677a11.874 11.874 0 0 1 1.938 6.539c0 2.415-.738 4.723-1.984 6.615M49.785 15.954c-15.723 4.692-12.908 19.938-12.908 19.938l.185.4c7.661-.769 13.63-7.261 13.63-15.154 0-1.83-.323-3.569-.907-5.2M35.523 5.908a15.096 15.096 0 0 0-11.246 5.015h22.508a15.098 15.098 0 0 0-11.247-5.015"/></svg>